# xmcd
#
# Track frame offsets:
#	150
#	29554
#	58957
#	91512
#	112365
#	133218
#
# Disc length: 2041 seconds
#
# Revision: 1
# Processed by: cddbd v1.5.1PL2 Copyright (c) Steve Scherf et al.
# Submitted via: EasyCDDAExtractor 7.0.5.4
#
DISCID=5707f706
DTITLE=Karl Pilington, Ricky Gervais and Steve Merchant - The Ricky Gervais Show
DTITLE=S2E4
DYEAR=2006
DGENRE=Comedy
TTITLE0=Part 1
TTITLE1=Part  2
TTITLE2=Part  3
TTITLE3=Part  4
TTITLE4=Part  5
TTITLE5=Part  6
EXTD=
EXTT0=
EXTT1=
EXTT2=
EXTT3=
EXTT4=
EXTT5=
PLAYORDER=
